HIERARCHY
ROOT hip
{
	OFFSET 0.000000 0.000000 0.000000
	CHANNELS 6 Xposition Yposition Zposition Xrotation Zrotation Yrotation 
	JOINT abdomen
	{
		OFFSET 0.000000 3.422050 0.000000
		CHANNELS 3 Xrotation Zrotation Yrotation 
		JOINT chest
		{
			OFFSET 0.000000 8.486693 -0.684411
			CHANNELS 3 Xrotation Zrotation Yrotation 
			JOINT neck
			{
				OFFSET 0.000000 10.266162 -0.273764
				CHANNELS 3 Xrotation Zrotation Yrotation 
				JOINT head
				{
					OFFSET 0.000000 3.148285 0.000000
					CHANNELS 3 Xrotation Zrotation Yrotation 
					End Site
					{
						OFFSET 0.000000 3.148289 0.000000
					}
				}
			}
			JOINT lCollar
			{
				OFFSET 3.422053 6.707223 -0.821293
				CHANNELS 3 Yrotation Zrotation Xrotation 
				JOINT lShldr
				{
					OFFSET 3.285171 0.000000 0.000000
					CHANNELS 3 Zrotation Yrotation Xrotation 
					JOINT lForeArm
					{
						OFFSET 10.129278 0.000000 0.000000
						CHANNELS 3 Yrotation Zrotation Xrotation 
						JOINT lHand
						{
							OFFSET 8.486692 0.000000 0.000000
							CHANNELS 3 Zrotation Yrotation Xrotation 
							End Site
							{
								OFFSET 4.106464 0.000000 0.000000
							}
						}
					}
				}
			}
			JOINT rCollar
			{
				OFFSET -3.558935 6.707223 -0.821293
				CHANNELS 3 Yrotation Zrotation Xrotation 
				JOINT rShldr
				{
					OFFSET -3.148289 0.000000 0.000000
					CHANNELS 3 Zrotation Yrotation Xrotation 
					JOINT rForeArm
					{
						OFFSET -10.266159 0.000000 0.000000
						CHANNELS 3 Yrotation Zrotation Xrotation 
						JOINT rHand
						{
							OFFSET -8.349810 0.000000 0.000000
							CHANNELS 3 Zrotation Yrotation Xrotation 
							End Site
							{
								OFFSET -4.106464 0.000000 0.000000
							}
						}
					}
				}
			}
		}
	}
	JOINT lThigh
	{
		OFFSET 5.338403 -1.642589 1.368821
		CHANNELS 3 Xrotation Zrotation Yrotation 
		JOINT lShin
		{
			OFFSET -2.053232 -20.121670 0.000000
			CHANNELS 3 Xrotation Zrotation Yrotation 
			JOINT lFoot
			{
				OFFSET 0.000000 -19.300380 -1.231939
				CHANNELS 3 Xrotation Yrotation Zrotation 
				End Site
				{
					OFFSET 0.000000 -2.463878 4.653993
				}
			}
		}
	}
	JOINT rThigh
	{
		OFFSET -5.338403 -1.642589 1.368821
		CHANNELS 3 Xrotation Zrotation Yrotation 
		JOINT rShin
		{
			OFFSET 2.053232 -20.121670 0.000000
			CHANNELS 3 Xrotation Zrotation Yrotation 
			JOINT rFoot
			{
				OFFSET 0.000000 -19.300380 -1.231939
				CHANNELS 3 Xrotation Yrotation Zrotation 
				End Site
				{
					OFFSET 0.000000 -2.463878 4.653993
				}
			}
		}
	}
}
MOTION
Frames: 9
Frame Time: 0.024994
-0.135168 4.236591 24.050943 -90.001862 -0.269606 179.747711 -45.289272 0.081492 -0.137460 17.627342 0.709126 0.117863 -7.901621 0.000000 0.000000 21.065475 0.000000 0.000000 11.833571 -3.013994 -38.408859 -56.427170 -39.441620 1.905969 -114.106766 -4.013106 52.631702 -28.860733 17.989435 -68.172020 -43.427006 -7.815918 -12.787855 65.131172 45.446529 13.760793 129.898331 14.911025 -9.621692 -32.547626 -29.074289 -17.517117 -2.024504 7.965353 0.001026 75.435486 3.190753 -2.156132 47.619408 5.779889 6.297430 -1.731232 -5.382808 -0.224987 106.709221 -4.665254 -1.175774 23.064539 0.944105 -3.746428 
-0.135168 4.236591 24.050943 -90.001862 -0.269606 179.747711 -45.889130 0.081486 -0.137445 18.891304 0.709144 0.117862 -5.781010 0.000000 0.000000 20.133123 0.000000 0.000000 11.983734 -2.840744 -39.066933 -56.427170 -39.441620 1.905969 -114.106766 -4.013106 52.631702 -28.712568 18.083387 -68.445633 -43.503735 -7.480065 -13.511415 65.131172 45.446529 13.760793 129.898331 14.911025 -9.621692 -32.634628 -29.272276 -17.654749 -2.024504 7.965353 0.001026 75.435486 3.190753 -2.156132 47.619408 5.779889 6.297430 -1.731232 -5.382808 -0.224987 106.709221 -4.665254 -1.175774 23.064539 0.944105 -3.746428 
-0.135168 4.236591 24.050943 -90.001862 -0.269606 179.747711 -46.489174 0.081482 -0.137430 20.156963 0.709162 0.117860 -3.652275 0.000000 0.000000 19.200094 0.000000 0.000000 12.135915 -2.669155 -39.725624 -56.427170 -39.441620 1.905969 -114.106766 -4.013106 52.631702 -28.564779 18.178020 -68.719147 -43.576157 -7.143100 -14.234355 65.131172 45.446529 13.760793 129.898331 14.911025 -9.621692 -32.721252 -29.470461 -17.792315 -2.024504 7.965353 0.001026 75.435486 3.190753 -2.156132 47.619408 5.779889 6.297430 -1.731232 -5.382808 -0.224987 106.709221 -4.665254 -1.175774 23.064539 0.944105 -3.746428 
-0.135168 4.236591 24.050943 -90.001862 -0.269606 179.747711 -47.089355 0.081477 -0.137415 21.424015 0.709180 0.117859 -1.516851 0.000000 0.000000 18.266500 0.000000 0.000000 12.290097 -2.499269 -40.384903 -56.427170 -39.441620 1.905969 -114.106766 -4.013106 52.631702 -28.417364 18.273327 -68.992577 -43.644268 -6.805109 -14.956655 65.131172 45.446529 13.760793 129.898331 14.911025 -9.621692 -32.807518 -29.668842 -17.929817 -2.024504 7.965353 0.001026 75.435486 3.190753 -2.156132 47.619408 5.779889 6.297430 -1.731232 -5.382808 -0.224987 106.709221 -4.665254 -1.175774 23.064539 0.944105 -3.746428 
-0.135168 4.236591 24.050943 -90.001862 -0.269606 179.747711 -47.689648 0.081472 -0.137400 22.692162 0.709199 0.117859 0.623804 0.000000 0.000000 17.332479 0.000000 0.000000 12.446248 -2.331124 -41.044750 -56.427170 -39.441620 1.905969 -114.106758 -4.013105 52.631702 -28.270355 18.369320 -69.265930 -43.708069 -6.466184 -15.678302 65.131172 45.446529 13.760793 129.898331 14.911025 -9.621692 -32.893402 -29.867411 -18.067253 -2.024504 7.965353 0.001026 75.435486 3.190753 -2.156132 47.619408 5.779889 6.297430 -1.731232 -5.382808 -0.224987 106.709221 -4.665254 -1.175774 23.064539 0.944105 -3.746428 
-0.135168 4.236591 24.050943 -90.001862 -0.269606 179.747711 -48.290031 0.081468 -0.137384 23.961079 0.709217 0.117859 2.768213 0.000000 0.000000 16.398142 0.000000 0.000000 12.604339 -2.164754 -41.705090 -56.427170 -39.441620 1.905969 -114.106766 -4.013108 52.631699 -28.123734 18.465969 -69.539192 -43.767525 -6.126401 -16.399261 65.131172 45.446529 13.760793 129.898331 14.911025 -9.621692 -32.978905 -30.066154 -18.204618 -2.024504 7.965353 0.001026 75.435486 3.190753 -2.156132 47.619408 5.779889 6.297430 -1.731232 -5.382808 -0.224987 106.709221 -4.665254 -1.175774 23.064539 0.944105 -3.746428 
-0.135168 4.236591 24.050943 -90.001862 -0.269606 179.747711 -48.890453 0.081463 -0.137369 25.230471 0.709236 0.117859 4.914880 0.000000 0.000000 15.463624 0.000000 0.000000 12.764338 -2.000198 -42.365887 -56.427170 -39.441620 1.905969 -114.106766 -4.013106 52.631702 -27.977509 18.563290 -69.812340 -43.822662 -5.785856 -17.119530 65.131172 45.446529 13.760793 129.898331 14.911025 -9.621692 -33.064034 -30.265083 -18.341921 -2.024504 7.965353 0.001026 75.435486 3.190753 -2.156132 47.619408 5.779889 6.297430 -1.731232 -5.382808 -0.224987 106.709221 -4.665254 -1.175774 23.064539 0.944105 -3.746428 
-0.135168 4.236591 24.050943 -90.001862 -0.269606 179.747711 -49.490906 0.081459 -0.137354 26.500015 0.709254 0.117860 7.062301 0.000000 0.000000 14.529038 0.000000 0.000000 12.926217 -1.837493 -43.027115 -56.427170 -39.441620 1.905969 -114.106766 -4.013106 52.631702 -27.831697 18.661272 -70.085419 -43.873459 -5.444630 -17.839077 65.131180 45.446529 13.760795 129.898331 14.911025 -9.621692 -33.148785 -30.464195 -18.479170 -2.024504 7.965353 0.001026 75.435486 3.190753 -2.156132 47.619408 5.779889 6.297430 -1.731232 -5.382808 -0.224987 106.709221 -4.665254 -1.175774 23.064539 0.944105 -3.746428 
-0.135168 4.236591 24.050943 -90.001862 -0.269606 179.747711 -50.091343 0.081455 -0.137338 27.769403 0.709272 0.117861 9.208970 0.000000 0.000000 13.594517 0.000000 0.000000 13.089942 -1.676671 -43.688713 -56.427170 -39.441620 1.905969 -114.106758 -4.013105 52.631702 -27.686291 18.759903 -70.358345 -43.919922 -5.102816 -18.557894 65.131180 45.446529 13.760795 129.898331 14.911025 -9.621692 -33.233150 -30.663471 -18.616348 -2.024504 7.965353 0.001026 75.435486 3.190753 -2.156132 47.619408 5.779889 6.297430 -1.731232 -5.382808 -0.224987 106.709221 -4.665254 -1.175774 23.064539 0.944105 -3.746428 
